<svg width="743" height="289" viewBox="0 0 743 289" fill="none" xmlns="http://www.w3.org/2000/svg">
<path d="M22.4279 21L21.8853 23.2175C21.8853 23.2175 10.0361 70.5384 40.3795 96.1401C39.2809 98.5887 38.1673 101.136 37.0509 103.776L35.5206 107.398L39.4437 107.59C40.2224 107.628 41.0237 107.638 41.8412 107.625C37.2769 124.961 37.1094 143.971 43.0244 160.399C49.0845 177.229 52.4767 185.383 54.2675 190.682C56.0583 195.98 56.3153 198.27 56.3153 204.617C56.3153 207.212 55.1124 211.488 53.7876 216.16C52.4628 220.831 51.051 225.973 51.051 231.062C51.051 241.365 54.1215 250.996 61.0556 257.997C67.9897 264.999 78.6187 269.166 92.9945 269.166C107.371 269.166 117.999 264.999 124.933 257.997C131.868 250.996 134.939 241.365 134.939 231.062C134.939 225.861 133.322 220.692 131.816 216.012C130.31 211.333 128.958 207.059 128.958 204.506C128.958 198.443 129.315 196.136 131.266 190.752C133.217 185.367 136.812 177.112 143.031 160.43C150.159 141.306 148.796 118.592 141.755 99.1248C142.366 98.6858 142.985 98.2313 143.622 97.7428C176.461 72.5703 164.104 23.2195 164.104 23.2195L163.561 21.0019L161.286 21.1317C161.286 21.1317 159.235 21.27 156.342 22.2161C153.449 23.1621 149.513 24.9314 145.177 28.2038C139.097 32.792 132.267 40.3251 126.331 52.5529C119.785 42.9311 110.825 37.4406 102.594 34.4812C90.4928 30.13 79.6934 30.9196 79.6934 30.9196L75.5512 31.2157L81.6263 43.0445C76.7184 41.5579 70.9669 40.6457 64.8314 40.5701C61.0023 40.5229 57.0685 40.7851 53.2186 41.4448C49.0679 35.4535 44.78 31.1989 40.8111 28.2038C36.475 24.9316 32.5395 23.1622 29.6462 22.216C26.7529 21.27 24.7029 21.1317 24.7029 21.1317L22.4279 21Z" fill="black"/>
<path d="M26.772 27.1619C27.2955 27.2834 27.1609 27.177 27.9445 27.4332C30.3181 28.2093 33.6895 29.7011 37.5122 32.586C40.6156 34.928 44.0283 38.1978 47.4356 42.7712C45.3371 43.3856 43.2964 44.1412 41.3476 45.0547C37.4505 39.7586 34.2829 36.7105 34.2829 36.7105C34.0233 36.4509 33.7144 36.2461 33.3743 36.1082C33.0343 35.9703 32.67 35.9021 32.3032 35.9077C31.7576 35.9161 31.227 36.0872 30.779 36.3992C30.3311 36.7111 29.9863 37.1498 29.7887 37.659C29.5911 38.1682 29.5497 38.7248 29.6698 39.2577C29.7898 39.7906 30.0659 40.2755 30.4627 40.6505C30.4627 40.6505 33.1249 43.2704 36.4929 47.7868L34.0713 49.3272L37.0938 51.7249C38.5654 52.8919 39.9561 53.9601 41.2711 54.9416C44.8517 60.9675 48.2644 68.5431 49.6041 76.9685C47.5695 80.9203 45.2365 85.6288 42.7625 90.9355C19.2589 69.8155 25.4292 33.7628 26.7708 27.1619L26.772 27.1619Z" fill="white"/>
<path d="M159.215 27.1635C160.61 34.0309 167.228 72.7297 140.288 93.3808C140.077 93.542 139.878 93.6852 139.673 93.8388C139.435 93.2842 139.195 92.7314 138.948 92.1838C137.364 88.673 135.576 85.3015 133.609 82.1145C134.089 81.9491 134.514 81.6536 134.837 81.2607C135.159 80.8679 135.366 80.3931 135.435 79.8894C138.668 59.0764 154.607 43.398 154.607 43.398C155.009 43.0181 155.287 42.5256 155.404 41.9849C155.522 41.4442 155.473 40.8805 155.265 40.3678C155.057 39.8551 154.7 39.4172 154.239 39.1116C153.778 38.806 153.236 38.6469 152.683 38.6552C151.971 38.6658 151.291 38.9536 150.787 39.4575C150.787 39.4575 139.275 50.5188 133.13 67.1899C132.19 63.9674 131.032 61.0239 129.703 58.3342C135.649 44.7332 142.615 37.0104 148.476 32.587C152.299 29.7022 155.67 28.2104 158.044 27.4342C158.826 27.1785 158.691 27.286 159.214 27.1645L159.215 27.1635Z" fill="white"/>
<path d="M50.7275 61.3792C51.91 62.0934 52.9712 62.6943 53.9083 63.1945C54.991 63.7725 55.6303 64.0086 56.4269 64.3604C55.8901 65.2984 54.8934 67.0548 53.5703 69.4813C52.7793 66.643 51.8093 63.9344 50.7275 61.3792Z" fill="black"/>
<path d="M130.322 87.3104C131.623 89.5888 132.835 91.9717 133.95 94.4432C142.798 114.057 145.23 138.821 137.892 158.508C131.709 175.097 128.182 183.161 126.11 188.879C124.039 194.595 123.473 198.171 123.473 204.506C123.473 208.687 125.111 213.085 126.596 217.697C128.08 222.309 129.454 227.05 129.454 231.063C129.454 240.287 126.778 248.336 121.039 254.131C115.299 259.926 106.327 263.674 92.9941 263.674C79.6613 263.674 70.6895 259.926 64.9495 254.131C59.2101 248.336 56.5345 240.287 56.5345 231.063C56.5345 227.03 57.7549 222.27 59.0622 217.66C60.3695 213.05 61.7988 208.664 61.7988 204.617C61.7988 198.076 61.3745 194.581 59.4613 188.921C57.548 183.262 54.2135 175.285 48.1834 158.539C42.5388 142.863 42.9013 124.055 47.6659 107.171C50.7891 106.755 54.068 106.07 57.3938 105.189C55.0521 109.017 53.7194 113.9 53.7194 119.215C53.7194 124.901 55.244 130.093 57.8979 134.028C60.5518 137.963 64.5308 140.737 69.1253 140.737C73.7198 140.737 77.6988 137.963 80.3527 134.028C83.0067 130.093 84.5334 124.901 84.5334 119.215C84.5334 113.529 83.0066 108.337 80.3527 104.402C78.8351 102.152 76.8827 100.285 74.6311 99.096C79.2744 97.0553 83.5886 94.8079 87.1977 92.5028C88.9077 91.4107 90.3375 90.3162 91.7041 89.2089C91.2633 92.1173 90.1087 94.9589 88.8352 98.6481C86.7632 104.65 85.0591 112.544 88.5701 124.189L90.0238 129.007L93.2833 125.178C96.2015 121.751 98.9624 118.993 101.583 116.671C101.5 117.585 101.454 118.514 101.454 119.458C101.454 125.144 102.981 130.339 105.635 134.273C108.289 138.208 112.268 140.981 116.862 140.981C121.457 140.981 125.436 138.208 128.089 134.273C130.743 130.339 132.268 125.144 132.268 119.458C132.268 113.772 130.743 108.581 128.089 104.646C126.766 102.684 125.112 101.011 123.217 99.8255C126.08 96.7003 128.479 92.7949 130.321 87.3135L130.322 87.3104Z" fill="white"/>
<path d="M69.1269 103.184C71.5267 103.184 73.8799 104.614 75.8095 107.475C77.7392 110.336 79.0486 114.531 79.0486 119.215C79.0486 123.898 77.7393 128.093 75.8095 130.954C73.8797 133.816 71.5268 135.245 69.1269 135.245C66.727 135.245 64.3739 133.815 62.4443 130.954C60.5145 128.093 59.2048 123.898 59.2048 119.215C59.2048 114.531 60.5146 110.336 62.4443 107.475C64.374 104.614 66.7269 103.184 69.1269 103.184Z" fill="white"/>
<path d="M118.905 103.782C120.576 104.366 122.169 105.674 123.546 107.715C125.476 110.577 126.785 114.772 126.785 119.455C126.785 124.139 125.476 128.335 123.546 131.196C121.616 134.057 119.263 135.487 116.863 135.487C114.463 135.487 112.11 134.057 110.181 131.196C108.251 128.335 106.941 124.139 106.941 119.455C106.941 116.443 107.485 113.636 108.384 111.253C112.2 108.494 115.69 106.317 118.905 103.782Z" fill="white"/>
<path d="M70.1002 117.02C68.4208 117.02 66.8101 117.688 65.6225 118.877C64.435 120.066 63.7678 121.678 63.7678 123.36C63.7678 125.041 64.435 126.654 65.6225 127.843C66.8101 129.032 68.4208 129.7 70.1002 129.7C71.7797 129.7 73.3903 129.032 74.5779 127.843C75.7654 126.654 76.4326 125.041 76.4326 123.36C76.4326 121.678 75.7654 120.066 74.5779 118.877C73.3903 117.688 71.7797 117.02 70.1002 117.02Z" fill="black"/>
<path d="M115.077 117.02C113.398 117.02 111.787 117.688 110.599 118.877C109.412 120.066 108.745 121.678 108.745 123.36C108.745 125.041 109.412 126.654 110.599 127.843C111.787 129.032 113.398 129.7 115.077 129.7C116.756 129.7 118.367 129.032 119.555 127.843C120.742 126.654 121.409 125.041 121.409 123.36C121.409 121.678 120.742 120.066 119.555 118.877C118.367 117.688 116.756 117.02 115.077 117.02Z" fill="black"/>
<path d="M64.7662 226.544V226.544C64.3162 226.56 63.8772 226.648 63.501 226.813C61.4947 227.691 61.0155 229.244 60.6349 230.731C59.8736 233.704 60.2069 237.758 63.2927 240.63C63.7185 241.038 64.264 241.298 64.8485 241.371C65.433 241.444 66.0254 241.326 66.5382 241.036C66.5404 243.303 66.286 245.882 65.6292 249.599C65.5551 249.959 65.5537 250.33 65.6252 250.69C65.6968 251.05 65.8397 251.392 66.0455 251.696C66.2514 252 66.5161 252.259 66.8238 252.459C67.1316 252.659 67.4762 252.795 67.8373 252.859C68.1985 252.923 68.5687 252.913 68.9262 252.832C69.2838 252.75 69.6213 252.597 69.9188 252.382C70.2163 252.168 70.4678 251.896 70.6585 251.582C70.8491 251.268 70.9749 250.919 71.0286 250.556C72.7448 240.844 72.2797 235.45 68.8276 229.168C68.3735 228.342 67.823 227.587 66.8843 227.034C66.415 226.758 65.8215 226.592 65.2185 226.551C65.0678 226.541 64.9165 226.539 64.7664 226.544L64.7662 226.544Z" fill="black"/>
<path d="M121.226 226.546C121.076 226.541 120.924 226.544 120.774 226.554C120.171 226.595 119.577 226.76 119.107 227.037C118.169 227.589 117.618 228.344 117.164 229.171C113.712 235.452 113.247 240.846 114.964 250.559C115.017 250.922 115.143 251.271 115.334 251.584C115.524 251.898 115.776 252.17 116.073 252.385C116.371 252.6 116.708 252.752 117.066 252.834C117.423 252.916 117.794 252.925 118.155 252.861C118.516 252.797 118.861 252.661 119.168 252.461C119.476 252.262 119.741 252.002 119.947 251.699C120.152 251.395 120.295 251.053 120.367 250.692C120.438 250.332 120.437 249.962 120.363 249.602C119.706 245.885 119.452 243.305 119.454 241.038C119.967 241.329 120.559 241.446 121.143 241.373C121.728 241.3 122.273 241.04 122.699 240.633C125.785 237.761 126.118 233.707 125.357 230.734C124.977 229.247 124.497 227.694 122.491 226.815C122.114 226.651 121.676 226.563 121.226 226.547L121.226 226.546Z" fill="black"/>
<path d="M47.5494 99.2152C44.9558 99.3832 42.788 99.5769 41.6138 99.732C30.0264 101.321 21.8455 105.61 17.6389 112.327C16.3873 114.317 15.2389 117.197 14.5292 120.13L14.1808 121.551L12.4001 121.615C10.6452 121.68 10.6194 121.68 10.3097 122.042C10.0129 122.391 10 122.455 10 124.716V127.041L10.3742 127.455C10.7484 127.868 10.7742 127.881 12.0388 127.92L13.3162 127.971L13.4065 130.18C13.6904 137.712 15.9486 144.067 20.1422 149.131C21.3293 150.565 24.0907 153.214 25.4843 154.26C28.5295 156.546 31.3683 157.993 34.7104 158.962C47.9107 162.812 61.653 156.624 74.776 140.928C82.9956 131.097 86.6086 121.938 85.1375 114.614C85.073 114.278 85.1117 114.226 85.7569 113.942C87.3441 113.244 89.1506 112.921 91.4216 112.921C93.9636 112.934 96.4927 113.542 98.0024 114.51C98.9444 115.118 98.9186 115.066 98.7637 116.642C98.3895 120.324 99.525 125.065 101.899 129.819C105.938 137.867 114.584 147.762 122.519 153.394C130.081 158.755 138.055 160.952 145.746 159.789C151.875 158.872 157.243 156.081 161.94 151.392C164.456 148.886 166.095 146.612 167.553 143.641C169.566 139.52 170.572 135.361 170.74 130.374L170.817 127.958L172.611 127.92L174.417 127.881L174.792 127.455L175.166 127.041V124.703V122.365L174.792 121.99L174.417 121.615H172.211H170.017L169.888 121.125C169.824 120.866 169.669 120.272 169.566 119.807C169.243 118.347 168.353 115.802 167.682 114.42C164.998 108.775 160.378 104.873 153.217 102.199C149.539 100.817 145.294 99.9516 139.358 99.3832C137.165 99.1636 129.307 99.1636 127.1 99.3702C122.881 99.7836 119.861 100.21 117.267 100.765L115.809 101.075H92.0926C68.7887 101.075 68.35 101.075 67.15 100.817C64.4531 100.236 60.8143 99.719 57.2271 99.3961C55.7045 99.254 48.8269 99.1248 47.5494 99.2152ZM106.519 104.408C103.396 106.553 101.306 108.852 100.132 111.41C99.9251 111.875 99.7444 112.276 99.7186 112.301C99.7057 112.327 99.2412 112.121 98.6863 111.836C96.8798 110.906 95.1765 110.454 92.7765 110.26C89.9893 110.041 86.8666 110.506 84.6859 111.462L84.2214 111.668L83.6923 110.712C82.5181 108.568 80.5697 106.437 78.5309 105.067C77.9632 104.68 77.4986 104.331 77.4857 104.266C77.4857 104.215 84.0924 104.176 92.17 104.189C106.016 104.189 106.828 104.202 106.519 104.408Z" fill="black"/>
<path d="M84.4363 36.5027C88.1799 36.614 93.6269 37.0903 100.741 39.6484C111.576 43.5443 123.302 51.6847 128.179 69.9446C126.306 87.9908 122.376 93.8844 116.113 98.9882C110.501 103.562 102.324 107.835 92.7628 117.824C91.3055 110.189 92.422 105.076 94.022 100.441C95.9434 94.8751 98.7344 89.3762 96.7814 82.0141L95.0991 75.6779L91.7688 81.323C90.8534 82.8741 88.0981 85.4142 84.2498 87.8719C80.4016 90.3296 75.4833 92.8305 70.2016 95.0209C61.3345 98.6985 51.4993 101.324 43.9211 101.892C53.081 81.0099 62.6618 64.3855 62.6618 64.3855L64.5426 61.1586L60.9046 60.3235C60.9046 60.3235 59.8027 60.116 56.4891 58.3472C53.7872 56.905 49.4307 54.0542 44.0226 50.0084C50.1207 47.2441 57.563 45.9692 64.7659 46.0579C73.4939 46.1654 81.7765 48.2042 86.045 50.7037L94.184 55.464L84.4363 36.5027Z" fill="#EA0000"/>
<path d="M243.75 103.1H257.55V121.6C257.55 130.267 253.217 134.6 244.55 134.6H235.95C227.284 134.6 222.95 130.267 222.95 121.6V76.4C222.95 67.7333 227.284 63.4 235.95 63.4H244.35C253.017 63.4 257.35 67.7333 257.35 76.4V92.8H243.55V77.9C243.55 76.2333 242.717 75.4 241.05 75.4H239.45C237.784 75.4 236.95 76.2333 236.95 77.9V120.1C236.95 121.767 237.784 122.6 239.45 122.6H241.25C242.917 122.6 243.75 121.767 243.75 120.1V103.1ZM264.213 64H278.213V121.5H288.313V134H264.213V64ZM320.345 64L329.545 134H315.645L314.545 123.8H305.745L304.745 134H292.045L301.245 64H320.345ZM310.145 81L307.045 111.6H313.345L310.145 81ZM361.833 97.7C363.967 99.2333 365.433 100.8 366.233 102.4C367.033 104 367.433 106.1 367.433 108.7V121.6C367.433 130.267 363.1 134.6 354.433 134.6H346.633C337.967 134.6 333.633 130.267 333.633 121.6V106.7H347.333V120.3C347.333 121.967 348.167 122.8 349.833 122.8H351.133C352.8 122.8 353.633 121.967 353.633 120.3V111.9C353.633 110.033 352.833 108.533 351.233 107.4L339.233 98.5C337.1 96.9667 335.633 95.4 334.833 93.8C334.033 92.1333 333.633 90.0333 333.633 87.5V76.4C333.633 67.7333 337.967 63.4 346.633 63.4H354.233C362.9 63.4 367.233 67.7333 367.233 76.4V89.2H353.533V77.7C353.533 76.0333 352.7 75.2 351.033 75.2H349.933C348.267 75.2 347.433 76.0333 347.433 77.7V84.3C347.433 86.1667 348.233 87.6667 349.833 88.8L361.833 97.7ZM401.431 97.7C403.564 99.2333 405.031 100.8 405.831 102.4C406.631 104 407.031 106.1 407.031 108.7V121.6C407.031 130.267 402.698 134.6 394.031 134.6H386.231C377.564 134.6 373.231 130.267 373.231 121.6V106.7H386.931V120.3C386.931 121.967 387.764 122.8 389.431 122.8H390.731C392.398 122.8 393.231 121.967 393.231 120.3V111.9C393.231 110.033 392.431 108.533 390.831 107.4L378.831 98.5C376.698 96.9667 375.231 95.4 374.431 93.8C373.631 92.1333 373.231 90.0333 373.231 87.5V76.4C373.231 67.7333 377.564 63.4 386.231 63.4H393.831C402.498 63.4 406.831 67.7333 406.831 76.4V89.2H393.131V77.7C393.131 76.0333 392.298 75.2 390.631 75.2H389.531C387.864 75.2 387.031 76.0333 387.031 77.7V84.3C387.031 86.1667 387.831 87.6667 389.431 88.8L401.431 97.7ZM427.329 64V134H413.329V64H427.329ZM434.467 64H459.967V76.5H448.467V92.9H459.467V105.4H448.467V134H434.467V64ZM479.961 64V134H465.961V64H479.961ZM507.7 103.1H521.5V121.6C521.5 130.267 517.166 134.6 508.5 134.6H499.9C491.233 134.6 486.9 130.267 486.9 121.6V76.4C486.9 67.7333 491.233 63.4 499.9 63.4H508.3C516.966 63.4 521.3 67.7333 521.3 76.4V92.8H507.5V77.9C507.5 76.2333 506.666 75.4 505 75.4H503.4C501.733 75.4 500.9 76.2333 500.9 77.9V120.1C500.9 121.767 501.733 122.6 503.4 122.6H505.2C506.866 122.6 507.7 121.767 507.7 120.1V103.1ZM553.974 64L563.174 134H549.274L548.174 123.8H539.374L538.374 134H525.674L534.874 64H553.974ZM543.774 81L540.674 111.6H546.974L543.774 81ZM568.15 134V64H587.85C597.85 64 602.85 69 602.85 79V119C602.85 129 597.85 134 587.85 134H568.15ZM582.15 76V122H584.95C587.55 122 588.85 120.7 588.85 118.1V79.9C588.85 77.3 587.55 76 584.95 76H582.15ZM644.404 121.6C644.404 130.267 640.07 134.6 631.404 134.6H622.404C613.737 134.6 609.404 130.267 609.404 121.6V76.4C609.404 67.7333 613.737 63.4 622.404 63.4H631.404C640.07 63.4 644.404 67.7333 644.404 76.4V121.6ZM630.404 77.9C630.404 76.2333 629.57 75.4 627.904 75.4H625.904C624.237 75.4 623.404 76.2333 623.404 77.9V120.1C623.404 121.767 624.237 122.6 625.904 122.6H627.904C629.57 122.6 630.404 121.767 630.404 120.1V77.9ZM679.052 97.7C681.185 99.2333 682.652 100.8 683.452 102.4C684.252 104 684.652 106.1 684.652 108.7V121.6C684.652 130.267 680.319 134.6 671.652 134.6H663.852C655.185 134.6 650.852 130.267 650.852 121.6V106.7H664.552V120.3C664.552 121.967 665.385 122.8 667.052 122.8H668.352C670.019 122.8 670.852 121.967 670.852 120.3V111.9C670.852 110.033 670.052 108.533 668.452 107.4L656.452 98.5C654.319 96.9667 652.852 95.4 652.052 93.8C651.252 92.1333 650.852 90.0333 650.852 87.5V76.4C650.852 67.7333 655.185 63.4 663.852 63.4H671.452C680.119 63.4 684.452 67.7333 684.452 76.4V89.2H670.752V77.7C670.752 76.0333 669.919 75.2 668.252 75.2H667.152C665.485 75.2 664.652 76.0333 664.652 77.7V84.3C664.652 86.1667 665.452 87.6667 667.052 88.8L679.052 97.7ZM219.62 154L223.72 196.3L227.92 154H248.22V224H234.42V178.1L229.12 224H215.92L210.62 177.6V224H199.42V154H219.62ZM290.029 211.6C290.029 220.267 285.695 224.6 277.029 224.6H268.029C259.362 224.6 255.029 220.267 255.029 211.6V166.4C255.029 157.733 259.362 153.4 268.029 153.4H277.029C285.695 153.4 290.029 157.733 290.029 166.4V211.6ZM276.029 167.9C276.029 166.233 275.195 165.4 273.529 165.4H271.529C269.862 165.4 269.029 166.233 269.029 167.9V210.1C269.029 211.767 269.862 212.6 271.529 212.6H273.529C275.195 212.6 276.029 211.767 276.029 210.1V167.9ZM317.389 224H303.389V166.5H294.889V154H325.889V166.5H317.389V224ZM365.708 211.6C365.708 220.267 361.375 224.6 352.708 224.6H343.708C335.042 224.6 330.708 220.267 330.708 211.6V166.4C330.708 157.733 335.042 153.4 343.708 153.4H352.708C361.375 153.4 365.708 157.733 365.708 166.4V211.6ZM351.708 167.9C351.708 166.233 350.875 165.4 349.208 165.4H347.208C345.542 165.4 344.708 166.233 344.708 167.9V210.1C344.708 211.767 345.542 212.6 347.208 212.6H349.208C350.875 212.6 351.708 211.767 351.708 210.1V167.9ZM400.357 187.7C402.49 189.233 403.957 190.8 404.757 192.4C405.557 194 405.957 196.1 405.957 198.7V211.6C405.957 220.267 401.623 224.6 392.957 224.6H385.157C376.49 224.6 372.157 220.267 372.157 211.6V196.7H385.857V210.3C385.857 211.967 386.69 212.8 388.357 212.8H389.657C391.323 212.8 392.157 211.967 392.157 210.3V201.9C392.157 200.033 391.357 198.533 389.757 197.4L377.757 188.5C375.623 186.967 374.157 185.4 373.357 183.8C372.557 182.133 372.157 180.033 372.157 177.5V166.4C372.157 157.733 376.49 153.4 385.157 153.4H392.757C401.423 153.4 405.757 157.733 405.757 166.4V179.2H392.057V167.7C392.057 166.033 391.223 165.2 389.557 165.2H388.457C386.79 165.2 385.957 166.033 385.957 167.7V174.3C385.957 176.167 386.757 177.667 388.357 178.8L400.357 187.7ZM441.729 199.7V224H427.729V154H448.229C456.895 154 461.229 158.333 461.229 167V186.7C461.229 195.367 456.895 199.7 448.229 199.7H441.729ZM447.229 168.5C447.229 166.833 446.395 166 444.729 166H441.729V187.7H444.729C446.395 187.7 447.229 186.867 447.229 185.2V168.5ZM495.031 190.9C499.098 192.033 501.131 195.033 501.131 199.9V224H487.131V200C487.131 198.333 486.298 197.5 484.631 197.5H481.131V224H467.131V154H488.031C496.698 154 501.031 158.333 501.031 167V180.5C501.031 185.967 499.031 189.433 495.031 190.9ZM487.031 168.7C487.031 167.033 486.198 166.2 484.531 166.2H481.131V185.6H484.531C486.198 185.6 487.031 184.767 487.031 183.1V168.7ZM507.803 154H533.803V166.5H521.803V182.2H533.303V194.7H521.803V211.5H534.003V224H507.803V154ZM560.667 154L564.767 196.3L568.967 154H589.267V224H575.467V178.1L570.167 224H556.967L551.667 177.6V224H540.467V154H560.667ZM610.375 154V224H596.375V154H610.375ZM651.914 154V211.6C651.914 220.267 647.58 224.6 638.914 224.6H630.414C621.747 224.6 617.414 220.267 617.414 211.6V154H631.414V210.1C631.414 211.767 632.247 212.6 633.914 212.6H635.414C637.08 212.6 637.914 211.767 637.914 210.1V154H651.914ZM678.971 154L683.071 196.3L687.271 154H707.571V224H693.771V178.1L688.471 224H675.271L669.971 177.6V224H658.771V154H678.971Z" fill="black"/>
</svg>
