<svg width="209" height="289" viewBox="0 0 209 289" fill="none" xmlns="http://www.w3.org/2000/svg">
<path d="M33.4279 21L32.8853 23.2175C32.8853 23.2175 21.0361 70.5384 51.3795 96.1401C50.2809 98.5887 49.1673 101.136 48.0509 103.776L46.5206 107.398L50.4437 107.59C51.2224 107.628 52.0237 107.638 52.8412 107.625C48.2769 124.961 48.1094 143.971 54.0245 160.399C60.0845 177.229 63.4767 185.383 65.2675 190.682C67.0583 195.98 67.3153 198.27 67.3153 204.617C67.3153 207.212 66.1124 211.488 64.7876 216.16C63.4627 220.831 62.051 225.973 62.051 231.062C62.051 241.365 65.1215 250.996 72.0556 257.997C78.9897 264.999 89.6187 269.166 103.994 269.166C118.371 269.166 128.999 264.999 135.933 257.997C142.868 250.996 145.939 241.365 145.939 231.062C145.939 225.861 144.322 220.692 142.816 216.012C141.31 211.333 139.958 207.059 139.958 204.506C139.958 198.443 140.315 196.136 142.266 190.752C144.217 185.367 147.812 177.112 154.031 160.43C161.159 141.306 159.796 118.592 152.755 99.1248C153.366 98.6858 153.985 98.2313 154.622 97.7428C187.461 72.5703 175.104 23.2195 175.104 23.2195L174.561 21.0019L172.286 21.1317C172.286 21.1317 170.235 21.27 167.342 22.2161C164.449 23.1621 160.513 24.9314 156.177 28.2038C150.097 32.792 143.267 40.3251 137.331 52.5529C130.785 42.9311 121.825 37.4406 113.594 34.4812C101.493 30.13 90.6934 30.9196 90.6934 30.9196L86.5512 31.2157L92.6263 43.0445C87.7184 41.5579 81.9669 40.6457 75.8314 40.5701C72.0023 40.5229 68.0685 40.7851 64.2186 41.4448C60.0679 35.4535 55.78 31.1989 51.8111 28.2038C47.475 24.9316 43.5395 23.1622 40.6462 22.216C37.7529 21.27 35.7029 21.1317 35.7029 21.1317L33.4279 21Z" fill="white"/>
<path d="M37.772 27.1619C38.2955 27.2834 38.1609 27.177 38.9445 27.4332C41.3181 28.2093 44.6895 29.7011 48.5122 32.586C51.6156 34.928 55.0283 38.1978 58.4356 42.7712C56.3371 43.3856 54.2964 44.1412 52.3476 45.0547C48.4505 39.7586 45.2829 36.7105 45.2829 36.7105C45.0233 36.4509 44.7144 36.2461 44.3743 36.1082C44.0343 35.9703 43.67 35.9021 43.3032 35.9077C42.7576 35.9161 42.227 36.0872 41.779 36.3992C41.3311 36.7111 40.9863 37.1498 40.7887 37.659C40.5911 38.1682 40.5497 38.7248 40.6698 39.2577C40.7898 39.7906 41.0659 40.2755 41.4627 40.6505C41.4627 40.6505 44.1249 43.2704 47.4929 47.7868L45.0713 49.3272L48.0938 51.7249C49.5654 52.8919 50.9561 53.9601 52.2711 54.9416C55.8517 60.9675 59.2644 68.5431 60.6041 76.9685C58.5695 80.9203 56.2365 85.6287 53.7625 90.9355C30.2589 69.8155 36.4292 33.7628 37.7708 27.1619L37.772 27.1619Z" fill="black"/>
<path d="M170.215 27.1635C171.61 34.0309 178.228 72.7297 151.288 93.3808C151.077 93.542 150.878 93.6852 150.673 93.8388C150.435 93.2842 150.195 92.7314 149.948 92.1838C148.364 88.673 146.576 85.3015 144.609 82.1145C145.089 81.9491 145.514 81.6536 145.837 81.2607C146.159 80.8679 146.366 80.3931 146.435 79.8894C149.668 59.0764 165.607 43.398 165.607 43.398C166.009 43.0181 166.287 42.5256 166.404 41.9849C166.522 41.4442 166.473 40.8805 166.265 40.3678C166.057 39.8551 165.7 39.4172 165.239 39.1116C164.778 38.806 164.236 38.6469 163.683 38.6552C162.971 38.6658 162.291 38.9536 161.787 39.4575C161.787 39.4575 150.275 50.5188 144.13 67.1899C143.19 63.9674 142.032 61.0239 140.703 58.3342C146.649 44.7332 153.615 37.0104 159.476 32.587C163.299 29.7022 166.67 28.2104 169.044 27.4342C169.826 27.1785 169.691 27.286 170.214 27.1645L170.215 27.1635Z" fill="black"/>
<path d="M61.7275 61.3792C62.91 62.0934 63.9712 62.6943 64.9083 63.1945C65.991 63.7725 66.6303 64.0086 67.4269 64.3604C66.8901 65.2984 65.8934 67.0548 64.5703 69.4813C63.7793 66.643 62.8093 63.9344 61.7275 61.3792Z" fill="white"/>
<path d="M141.322 87.3104C142.623 89.5888 143.835 91.9717 144.95 94.4432C153.798 114.057 156.23 138.821 148.892 158.508C142.709 175.097 139.182 183.161 137.11 188.879C135.039 194.595 134.473 198.171 134.473 204.506C134.473 208.687 136.111 213.085 137.596 217.697C139.08 222.309 140.454 227.05 140.454 231.063C140.454 240.287 137.778 248.336 132.039 254.131C126.299 259.926 117.327 263.674 103.994 263.674C90.6613 263.674 81.6895 259.926 75.9495 254.131C70.2101 248.336 67.5345 240.287 67.5345 231.063C67.5345 227.03 68.7549 222.27 70.0622 217.66C71.3695 213.05 72.7988 208.664 72.7988 204.617C72.7988 198.076 72.3745 194.581 70.4613 188.921C68.548 183.262 65.2135 175.285 59.1834 158.539C53.5388 142.863 53.9013 124.055 58.6659 107.171C61.7891 106.755 65.068 106.07 68.3938 105.189C66.0521 109.017 64.7194 113.9 64.7194 119.215C64.7194 124.901 66.244 130.093 68.8979 134.028C71.5518 137.963 75.5308 140.737 80.1253 140.737C84.7198 140.737 88.6988 137.963 91.3527 134.028C94.0067 130.093 95.5334 124.901 95.5334 119.215C95.5334 113.529 94.0066 108.337 91.3527 104.402C89.8351 102.152 87.8827 100.285 85.6311 99.096C90.2744 97.0553 94.5886 94.8079 98.1977 92.5028C99.9077 91.4107 101.338 90.3162 102.704 89.2089C102.263 92.1173 101.109 94.9589 99.8352 98.6481C97.7632 104.65 96.0591 112.544 99.5701 124.189L101.024 129.007L104.283 125.178C107.202 121.751 109.962 118.993 112.583 116.671C112.5 117.585 112.454 118.514 112.454 119.458C112.454 125.144 113.981 130.339 116.635 134.273C119.289 138.208 123.268 140.981 127.862 140.981C132.457 140.981 136.436 138.208 139.089 134.273C141.743 130.339 143.268 125.144 143.268 119.458C143.268 113.772 141.743 108.581 139.089 104.646C137.766 102.684 136.112 101.011 134.217 99.8255C137.08 96.7003 139.479 92.7949 141.321 87.3135L141.322 87.3104Z" fill="black"/>
<path d="M80.1269 103.184C82.5267 103.184 84.8799 104.614 86.8095 107.475C88.7392 110.336 90.0486 114.531 90.0486 119.215C90.0486 123.898 88.7393 128.093 86.8095 130.954C84.8797 133.816 82.5268 135.245 80.1269 135.245C77.727 135.245 75.3739 133.815 73.4443 130.954C71.5145 128.093 70.2048 123.898 70.2048 119.215C70.2048 114.531 71.5146 110.336 73.4443 107.475C75.374 104.614 77.7269 103.184 80.1269 103.184Z" fill="black"/>
<path d="M129.905 103.782C131.576 104.366 133.169 105.674 134.546 107.715C136.476 110.577 137.785 114.772 137.785 119.455C137.785 124.139 136.476 128.335 134.546 131.196C132.616 134.057 130.263 135.487 127.863 135.487C125.463 135.487 123.11 134.057 121.181 131.196C119.251 128.335 117.941 124.139 117.941 119.455C117.941 116.443 118.485 113.636 119.384 111.253C123.2 108.494 126.69 106.317 129.905 103.782Z" fill="black"/>
<path d="M81.1002 117.02C79.4208 117.02 77.8101 117.688 76.6225 118.877C75.435 120.066 74.7678 121.678 74.7678 123.36C74.7678 125.041 75.435 126.654 76.6225 127.843C77.8101 129.032 79.4208 129.7 81.1002 129.7C82.7797 129.7 84.3903 129.032 85.5779 127.843C86.7654 126.654 87.4326 125.041 87.4326 123.36C87.4326 121.678 86.7654 120.066 85.5779 118.877C84.3903 117.688 82.7797 117.02 81.1002 117.02Z" fill="white"/>
<path d="M126.077 117.02C124.398 117.02 122.787 117.688 121.599 118.877C120.412 120.066 119.745 121.678 119.745 123.36C119.745 125.041 120.412 126.654 121.599 127.843C122.787 129.032 124.398 129.7 126.077 129.7C127.756 129.7 129.367 129.032 130.555 127.843C131.742 126.654 132.409 125.041 132.409 123.36C132.409 121.678 131.742 120.066 130.555 118.877C129.367 117.688 127.756 117.02 126.077 117.02Z" fill="white"/>
<path d="M75.7662 226.544V226.544C75.3162 226.56 74.8772 226.648 74.501 226.813C72.4947 227.691 72.0155 229.244 71.6349 230.731C70.8736 233.704 71.2069 237.758 74.2927 240.63C74.7185 241.038 75.264 241.298 75.8485 241.371C76.433 241.444 77.0254 241.326 77.5382 241.036C77.5404 243.303 77.286 245.882 76.6292 249.599C76.5551 249.959 76.5537 250.33 76.6252 250.69C76.6968 251.05 76.8397 251.392 77.0455 251.696C77.2514 252 77.5161 252.259 77.8238 252.459C78.1316 252.659 78.4762 252.795 78.8373 252.859C79.1985 252.923 79.5687 252.913 79.9262 252.832C80.2838 252.75 80.6213 252.597 80.9188 252.382C81.2163 252.168 81.4678 251.896 81.6585 251.582C81.8491 251.268 81.9749 250.919 82.0286 250.556C83.7448 240.844 83.2797 235.45 79.8276 229.168C79.3735 228.342 78.823 227.587 77.8843 227.034C77.415 226.758 76.8215 226.592 76.2185 226.551C76.0678 226.541 75.9165 226.539 75.7664 226.544L75.7662 226.544Z" fill="white"/>
<path d="M132.226 226.546C132.076 226.541 131.924 226.544 131.774 226.554C131.171 226.595 130.577 226.76 130.107 227.037C129.169 227.589 128.618 228.344 128.164 229.171C124.712 235.452 124.247 240.846 125.964 250.559C126.017 250.922 126.143 251.271 126.334 251.584C126.524 251.898 126.776 252.17 127.073 252.385C127.371 252.6 127.708 252.752 128.066 252.834C128.423 252.916 128.794 252.925 129.155 252.861C129.516 252.797 129.861 252.661 130.168 252.462C130.476 252.262 130.741 252.002 130.947 251.699C131.152 251.395 131.295 251.053 131.367 250.692C131.438 250.332 131.437 249.962 131.363 249.602C130.706 245.885 130.452 243.305 130.454 241.038C130.967 241.329 131.559 241.446 132.143 241.373C132.728 241.3 133.273 241.04 133.699 240.633C136.785 237.761 137.118 233.707 136.357 230.734C135.977 229.247 135.497 227.694 133.491 226.815C133.114 226.651 132.676 226.563 132.226 226.547L132.226 226.546Z" fill="white"/>
<path d="M58.5494 99.2152C55.9558 99.3832 53.788 99.5769 52.6138 99.732C41.0264 101.321 32.8455 105.61 28.6389 112.327C27.3873 114.317 26.2389 117.197 25.5292 120.13L25.1808 121.551L23.4001 121.615C21.6452 121.68 21.6194 121.68 21.3097 122.042C21.0129 122.391 21 122.455 21 124.716V127.041L21.3742 127.455C21.7484 127.868 21.7742 127.881 23.0388 127.92L24.3162 127.971L24.4065 130.18C24.6904 137.712 26.9486 144.067 31.1422 149.131C32.3293 150.565 35.0907 153.214 36.4843 154.26C39.5295 156.546 42.3683 157.993 45.7104 158.962C58.9107 162.812 72.653 156.624 85.776 140.928C93.9956 131.097 97.6086 121.938 96.1376 114.614C96.073 114.278 96.1117 114.226 96.7569 113.942C98.3441 113.244 100.151 112.922 102.422 112.922C104.964 112.934 107.493 113.542 109.002 114.51C109.944 115.118 109.919 115.066 109.764 116.642C109.39 120.324 110.525 125.065 112.899 129.819C116.938 137.867 125.584 147.762 133.519 153.394C141.081 158.755 149.055 160.952 156.746 159.789C162.875 158.872 168.243 156.081 172.94 151.392C175.456 148.886 177.095 146.612 178.553 143.641C180.566 139.52 181.572 135.361 181.74 130.374L181.817 127.958L183.611 127.92L185.417 127.881L185.792 127.455L186.166 127.041V124.703V122.365L185.792 121.99L185.417 121.615H183.211H181.017L180.888 121.125C180.824 120.866 180.669 120.272 180.566 119.807C180.243 118.347 179.353 115.802 178.682 114.42C175.998 108.775 171.378 104.873 164.217 102.199C160.539 100.817 156.294 99.9516 150.358 99.3832C148.165 99.1636 140.307 99.1636 138.1 99.3702C133.881 99.7836 130.861 100.21 128.267 100.765L126.809 101.075H103.093C79.7887 101.075 79.35 101.075 78.15 100.817C75.4531 100.236 71.8143 99.719 68.2271 99.3961C66.7045 99.254 59.8269 99.1248 58.5494 99.2152ZM117.519 104.408C114.396 106.553 112.306 108.852 111.132 111.41C110.925 111.875 110.744 112.276 110.719 112.301C110.706 112.327 110.241 112.121 109.686 111.836C107.88 110.906 106.177 110.454 103.776 110.26C100.989 110.041 97.8666 110.506 95.6859 111.462L95.2214 111.668L94.6923 110.712C93.5181 108.568 91.5697 106.437 89.5309 105.067C88.9632 104.68 88.4986 104.331 88.4857 104.266C88.4857 104.215 95.0924 104.176 103.17 104.189C117.016 104.189 117.828 104.202 117.519 104.408Z" fill="white"/>
<path d="M95.4363 36.5027C99.1799 36.614 104.627 37.0903 111.741 39.6484C122.576 43.5443 134.302 51.6847 139.179 69.9446C137.306 87.9908 133.376 93.8844 127.113 98.9882C121.501 103.562 113.324 107.835 103.763 117.824C102.305 110.189 103.422 105.076 105.022 100.441C106.943 94.8751 109.734 89.3762 107.781 82.0141L106.099 75.6779L102.769 81.323C101.853 82.8741 99.0981 85.4142 95.2498 87.8719C91.4016 90.3296 86.4833 92.8305 81.2016 95.021C72.3345 98.6985 62.4993 101.324 54.9211 101.892C64.081 81.0099 73.6618 64.3855 73.6618 64.3855L75.5426 61.1586L71.9046 60.3235C71.9046 60.3235 70.8027 60.116 67.4891 58.3472C64.7872 56.905 60.4307 54.0542 55.0226 50.0084C61.1207 47.2441 68.563 45.9692 75.7659 46.0579C84.4939 46.1654 92.7766 48.2042 97.045 50.7037L105.184 55.464L95.4363 36.5027Z" fill="black"/>
</svg>
