<svg width="2382.8" height="473.45" xmlns="http://www.w3.org/2000/svg"><g fill="#fff" fill-rule="evenodd"><path d="M783.772 306.474H664.221v-51.697c26.736 0 123.006-2.613 141.97 1.915 4.685 10.01 6.146 40.836-1.529 46.3-3.504 2.495-14.8 3.481-20.887 3.481zm22.417-107.222c-28.5 6.806-103.083 3.83-136.37 3.83-9.87 0-5.604-21.682-5.604-49.782 33.856 0 113.202-3.04 141.97 3.829 2.24 9.86 4.07 32.787 0 42.124zM598.848 356.248c0 4.413 1.3 5.745 5.603 5.745h192.408c59.888 0 76.589-21.337 76.589-72.757 0-14.008-1.591-27.794-6.16-37.725-4.346-9.453-11.915-18.91-21.86-21.631 4.166-5.83 11.213-8.021 16.112-14.12 12.325-15.346 8.171-43.05 8.171-70.125 0-26.604-24.418-42.123-48.566-42.123H598.857zM2111.873 153.41c0 58.755-10.315 105.307 61.643 105.307h149.437c0 27.046 4.014 45.951-5.605 45.951H2162.3v-30.634c-8.693.2-22.889 4.069-31.383 6.126-4.598 1.113-30.26 4.533-30.26 9.192 0 54.649 13.744 72.757 67.247 72.757h151.303c53.856 0 62.41-26.138 63.511-63.652v-35.91c0-44.672-18.06-63.184-61.643-63.184h-149.437V157.24h147.57v28.72c14.489-.33 46.53-12.272 59.775-13.402 0-38.336-5.258-68.929-54.172-68.929h-162.516c-29.506 0-50.435 18.57-50.435 49.782m-437.043 208.661h56.038V201.236l84.593 114.335c12.66 17.307 7.704 15.862 25.62 15.862 6.648 0 21.24-24.56 25.083-29.815 9.189-12.566 66.234-92.56 72.051-96.554l-.11 141.797c-.31 20.162-5.876 15.204 63.623 15.204V103.592h-50.436c-5.103 0-5.801 3.165-8.38 6.73l-20.979 28.276c-4.9 6.73-9.005 12.303-13.605 18.605-4.68 6.41-8.887 11.501-13.894 18.308l-55.222 73.596c-4.666-7.142-8.459-11.477-13.613-18.599l-41.846-54.755c-5.14-6.452-8.96-11.936-13.913-18.286-4.926-6.312-8.837-11.66-13.9-18.305l-21.268-27.982c-2.348-3.209-4.084-7.588-9.408-7.588h-50.436v258.473zm-704.236 0h61.643c4.304 0 5.604-1.332 5.604-5.744v-88.075H1138.7v-57.44h-100.872V157.2h183.062c4.305 0 5.603-1.331 5.603-5.743V103.59H970.579zm239.047 7.6h41.097l118.95-255.26c3.29-6.74 4.96-12.501 8.073-18.533h-42.963l-62.893 136.57c-8.076 16.422-60.192 128.107-62.263 137.223m130.796 0h39.228c6.605-10.112 10.424-21.44 16.188-33.189 5.966-12.165 10.25-21.486 15.593-33.799 4.863-11.212 10.875-21.482 16.173-33.204l39.87-85.502c2.962-6.167 4.767-11.847 8.043-18.56 5.69-11.653 30.478-61.189 31.156-69.543h-41.095l-78.996 169.849c-5.44 13.066-10.088 21.41-15.658 33.732-5.149 11.39-29.887 62.64-30.502 70.215m128.93.001h41.095c34.66-67.138 75.665-165.263 111.461-238.047l15.564-35.745h-42.964c-2.027 8.912-24.046 55.105-30.513 68.29-5.767 11.757-9.81 22.057-15.565 33.826-23.595 48.256-47.28 104.967-70.986 153.17-3.37 6.852-5.135 12.197-8.091 18.513M374.089 289.44c4.046.976 8.415 4.737 11.54 6.882-.277 3.421-1.528 8.992-1.926 11.916-.313 2.306-.314 3.924-.762 6.165l-1.828 5.07zM234.306 185.199h22.586v18.52c-3.97-2.724-20.52-15.355-22.586-18.52zM160.9 306.74l40.338 39.683c3.437 3.7 2.742 4.27 9.258 4.401l39.62-.097c19.024-.013 20.212 1.815 41.407 11.965 6.614 3.167 11.992 5.546 18.773 8.539l27.27 12.623c4.431 1.993 4.987 2.865 8.916.958 12.208-5.928 23.254-12.047 35.389-18.264 17.115-8.77 11.922-1.728 16.526-37.466l4.56-37.07c.107-3.304 2.167-.894-4.61-7.545-2.952-2.896-3.365-3.75-5.768-6.837l-20.223-20.943c-2.88-2.917-3.34-3.741-5.751-6.838L216.489 90.026c-3.09-4.669-1.377-45.49-1.377-54.152H428.56v402.83H224.152c-.286-.553-62.1-126.934-63.243-131.96zM.53 262.753c4.397-1.203 14.006-12.618 17.787-16.494l51.103-51.8c0 28.822 5.196 19.56-14.399 39.646L1.908 288.474C-1.34 293.383.53 306.514.53 313.687v27.78c6.93-1.896 57.42-60.424 68.89-68.295 0 28.82 5.196 19.56-14.399 39.645L1.91 367.187c-3.09 4.669-1.377 45.49-1.377 54.152l68.613-69.736c.276 6.847.697 14.841.362 21.206-.338 6.41-1.498 5.42-8.274 12.355-5.238 5.363-60.7 59.559-60.7 63.956v24.309H463.56V-.013H208.327c-3.944 0-54.703 54.332-58.443 58.167L33.564 177.382c-9.816 10.06-18.787 19.675-28.835 29.48C-1.656 213.094.53 215.48.53 232.654v30.096m35.288-158.271l-.28-68.583h66.63zM.529 184.062c5.299-1.45 40.853-40.138 45.455-44.855L169.645 12.456c3.63-3.721 9.051-7.09 10.446-12.444H.522z"/><path d="M351.743 97.279h-24.845c2.183 3.342 15.925 14.151 19.199 15.047 0 9.78-6.01 18.34-6.777 27.781 6.638-3.6 15.59-13.441 21.457-15.048l20.327 15.048c-.338-4.179-6.299-23.191-7.905-26.623 4.228-2.293 18.008-12.655 20.328-16.205h-24.845c-1.262-2.696-2.924-9.473-4.105-13.156-1.424-4.445-2.854-9.303-3.8-13.468-2.769 3.265-8.053 22.302-9.035 26.624"/></g></svg>